<?xml version="1.0" encoding="UTF-8" standalone="no"?>
<!-- Created with Inkscape (http://www.inkscape.org/) -->

<svg
   xmlns:dc="http://purl.org/dc/elements/1.1/"
   xmlns:cc="http://creativecommons.org/ns#"
   xmlns:rdf="http://www.w3.org/1999/02/22-rdf-syntax-ns#"
   xmlns:svg="http://www.w3.org/2000/svg"
   xmlns="http://www.w3.org/2000/svg"
   xmlns:sodipodi="http://sodipodi.sourceforge.net/DTD/sodipodi-0.dtd"
   xmlns:inkscape="http://www.inkscape.org/namespaces/inkscape"
   width="77"
   height="100"
   id="svg2"
   version="1.1"
   inkscape:version="0.48.4 r9939"
   sodipodi:docname="splatshield.svg">
  <defs
     id="defs4">
    <inkscape:perspective
       sodipodi:type="inkscape:persp3d"
       inkscape:vp_x="0 : 526.18109 : 1"
       inkscape:vp_y="0 : 1000 : 0"
       inkscape:vp_z="852.66591 : 154.75252 : 1"
       inkscape:persp3d-origin="372.04724 : 350.78739 : 1"
       id="perspective2985" />
  </defs>
  <sodipodi:namedview
     id="base"
     pagecolor="#ffffff"
     bordercolor="#666666"
     borderopacity="1.0"
     inkscape:pageopacity="0.0"
     inkscape:pageshadow="2"
     inkscape:zoom="1.89"
     inkscape:cx="186.14286"
     inkscape:cy="115.55639"
     inkscape:document-units="px"
     inkscape:current-layer="layer1"
     showgrid="false"
     inkscape:window-width="1680"
     inkscape:window-height="987"
     inkscape:window-x="-8"
     inkscape:window-y="-8"
     inkscape:window-maximized="1" />
  <metadata
     id="metadata7">
    <rdf:RDF>
      <cc:Work
         rdf:about="">
        <dc:format>image/svg+xml</dc:format>
        <dc:type
           rdf:resource="http://purl.org/dc/dcmitype/StillImage" />
        <dc:title></dc:title>
      </cc:Work>
    </rdf:RDF>
  </metadata>
  <g
     inkscape:label="Base"
     inkscape:groupmode="layer"
     id="layer1"
     style="display:inline"
     transform="translate(0,-952.36217)">
    <path
       style="fill:#ffffff;fill-opacity:1;stroke:#000000;stroke-width:0;stroke-linecap:butt;stroke-linejoin:miter;stroke-miterlimit:4;stroke-opacity:1;stroke-dasharray:none"
       d="m 39.70984,952.7808 -38,10.2875 c 0,0 0.2030905,65.2186 37.957231,88.7399 37.1827,-23.3359 36.899019,-88.4555 36.899019,-88.4555 z m 0.20313,6.3438 31.54687,9.05 c 0,0 -0.20941,55.8329 -32.03437,75.8063 C 7.1114,1023.8488 7.38797,967.9277 7.38797,967.9277 z"
       id="path3035"
       inkscape:connector-curvature="0"
       sodipodi:nodetypes="cccccccccc" />
    <path
       style="fill:none;stroke:#000000;stroke-width:0;stroke-miterlimit:4;stroke-opacity:1;stroke-dasharray:none"
       d="M 355.92503,953.5605 C 254.08863,881.59955 175.91746,764.05421 123.88773,604.6479 86.943752,491.46061 68.288456,386.79096 58.909049,240.07066 l -1.845125,-28.86295 28.135082,-7.68504 C 100.6733,199.29589 173.80414,179.47419 247.71198,159.47445 l 134.37791,-36.36318 155.62208,44.69258 155.62212,44.69257 0.9352,13.93288 c 2.12686,31.68659 -8.20269,130.82978 -21.09852,202.50431 -41.01405,227.95454 -129.25557,407.0222 -248.40811,504.0922 -19.05263,15.5216 -45.40249,34.47923 -47.92386,34.47923 -0.64897,0 -10.06017,-6.27506 -20.91377,-13.94454 l 0,0 z"
       id="path4187"
       inkscape:connector-curvature="0" />
    <path
       style="fill:#ffffff;fill-opacity:0;stroke:#000000;stroke-width:0;stroke-miterlimit:4;stroke-opacity:1;stroke-dasharray:none"
       d="M 355.92503,953.5605 C 258.22359,884.52144 181.30835,772.07044 130.06019,623.34338 c -11.64614,-33.7982 -32.440387,-104.7228 -32.440387,-110.647 0,-3.22788 34.568277,14.63643 54.919267,28.3814 20.73197,14.00226 44.27213,47.46603 29.36645,41.7462 -3.87979,-1.48883 -5.6929,1.86769 -4.56061,8.44283 0.221,1.28326 -2.51962,1.92612 -6.09023,1.42857 -5.94374,-0.82823 -6.41381,0.0606 -5.56602,10.52395 0.50931,6.28571 3.00504,13.03571 5.54609,15 4.10881,3.1762 3.92729,3.57142 -1.64029,3.57142 -3.44321,0 -6.26037,1.28572 -6.26037,2.85715 0,1.57143 2.42147,2.85714 5.38105,2.85714 2.97819,0 6.04833,2.55166 6.87537,5.71429 0.89406,3.41885 3.89719,5.71428 7.47609,5.71428 4.43723,0 5.98177,1.8008 5.98177,6.97423 0,6.62749 3.72377,11.0218 10,11.80077 1.57143,0.19514 5.02895,0.55046 7.68338,0.78983 2.65442,0.23943 10.52035,5.3634 17.47983,11.38677 13.17211,11.4004 19.48115,13.57394 63.11319,21.74349 13.9806,2.61768 30.32223,7.26071 36.31475,10.31788 13.84706,7.06423 22.67477,7.1336 24.48992,0.19257 0.77179,-2.95131 4.50856,-6.78088 8.30395,-8.51017 6.95025,-3.16685 9.65588,-11.83823 3.69371,-11.83823 -2.27917,0 -2.22181,-1.18705 0.19826,-4.10308 2.42225,-2.91863 2.55499,-5.69183 0.45983,-9.60666 -2.74749,-5.13371 -1.42366,-5.6808 19.69887,-8.14088 12.45437,-1.45052 25.56046,-1.55858 29.12466,-0.24 4.07965,1.50917 6.85208,1.28202 7.4838,-0.61318 1.44854,-4.34562 6.24157,-3.70634 6.24157,0.83249 0,5.27234 9.351,13.29997 15.49246,13.29997 2.77337,0 5.71494,-2.57143 6.53682,-5.71428 1.81855,-6.95415 1.45635,-6.94398 14.51312,-0.40743 9.534,4.77297 19.34414,7.37834 36.31474,9.6444 4.248,0.56723 5.73412,-0.90706 5.79157,-5.74557 0.0912,-7.67972 12.08852,-14.91998 24.72286,-14.91998 14.08706,0 20.35349,-4.94611 18.43289,-14.54917 l -1.6616,-8.30805 14.74442,0 c 10.55143,0 16.4218,1.55234 20.64286,5.45877 8.70292,8.05423 19.97163,8.88345 21.02152,1.54691 0.57094,-3.98971 -2.89018,-8.84703 -10.87812,-15.26628 -13.33917,-10.71969 -14.62777,-20.41098 -3.07397,-23.11886 9.32326,-2.18509 18.51534,-14.89246 16.15414,-22.33192 -1.28511,-4.04908 -5.29703,-6.40911 -13.15057,-7.73597 -6.21571,-1.05014 -14.19777,-4.28177 -17.73794,-7.18137 l -6.43663,-5.27203 12.92334,0.82757 c 7.10786,0.45518 17.21489,3.04683 22.46012,5.75923 13.15343,6.80192 10.53497,-0.67697 -2.94109,-8.40034 -5.4838,-3.14286 -14.83088,-9.75494 -20.77131,-14.69349 l -10.80077,-8.97922 13.9872,-1.92375 c 7.69297,-1.05805 15.70688,-2.98654 17.80871,-4.28554 5.41609,-3.34731 1.33671,-17.4962 -5.56483,-19.301 -3.02254,-0.7904 -5.33171,-3.5476 -5.13148,-6.12706 1.09034,-14.04548 -0.82209,-23.26137 -4.82703,-23.26137 -2.66666,0 -4.28572,-2.6984 -4.28572,-7.14286 0,-3.92857 -1.24537,-7.14285 -2.76748,-7.14285 -1.52209,0 -2.0274,-1.92857 -1.12289,-4.28572 1.04946,-2.73483 -0.0494,-4.28571 -3.03648,-4.28571 -2.57458,0 -5.40258,1.88023 -6.28443,4.17828 -2.54352,6.62835 -15.36015,-3.07208 -15.36015,-11.62554 0,-3.73451 -2.57142,-8.39591 -5.71428,-10.35866 -3.14286,-1.96274 -5.71429,-4.88277 -5.71429,-6.48894 0,-1.60617 -3.21428,-5.33411 -7.14285,-8.28434 -3.92858,-2.95026 -7.14286,-7.69152 -7.14286,-10.53617 0,-2.84466 -2.10706,-6.35129 -4.68232,-7.79246 -4.02974,-2.25517 -3.43242,-3.54446 4.28572,-9.25072 12.75697,-9.43164 11.29263,-12.69859 -5.69186,-12.69859 -18.7138,0 -24.18511,-6.20714 -14.53023,-16.48431 8.30755,-8.84297 8.01686,-15.72811 -0.83428,-19.76097 -5.49146,-2.50208 -8.74209,-2.42282 -13.90255,0.33898 -5.85251,3.13217 -8.18977,2.69116 -17.83274,-3.36481 -6.62806,-4.16255 -17.83491,-7.75075 -27.82648,-8.90943 -20.88329,-2.42176 -25.83258,-5.04507 -30.42192,-16.12473 -2.6916,-6.49806 -2.84486,-10.57419 -0.58414,-15.5359 3.9568,-8.68424 1.43888,-18.07648 -5.43054,-20.25675 -3.24786,-1.03082 -5.4058,-4.35059 -5.4058,-8.31621 0,-9.51543 -6.7264,-14.39451 -11.65592,-8.45479 -3.23917,3.90294 -3.17017,5.14249 0.4392,7.89238 2.355,1.79424 3.86357,5.83368 3.35232,8.97654 -2.75498,16.93639 -3.71898,18.57142 -10.94929,18.57142 -4.00194,0 -9.76317,1.33096 -12.80272,2.95767 -3.59765,1.92541 -5.52645,1.96394 -5.52645,0.11041 0,-1.56599 -5.02654,-7.82381 -11.17008,-13.90626 -6.8111,-6.74337 -12.57387,-15.98489 -14.76736,-23.68184 -1.97851,-6.94256 -4.66626,-13.84426 -5.97278,-15.33712 -1.30652,-1.49286 -2.3755,-5.11521 -2.3755,-8.04968 0,-4.05646 -1.38634,-4.89538 -5.78348,-3.49978 -4.86698,1.54472 -6.7301,-0.44222 -11.757,-12.53827 -8.05839,-19.39065 -39.60237,-44.27448 -39.60237,-31.24078 0,1.86218 -6.27867,-5.4938 -13.95259,-16.34662 l -13.9526,-19.7324 68.9526,-18.70928 68.95259,-18.70928 155.71428,44.70036 155.71429,44.70035 0.9352,13.92698 c 2.12717,31.67791 -8.20332,130.82746 -21.09852,202.4984 -41.01405,227.95454 -129.25557,407.0222 -248.40811,504.0922 -19.05263,15.5216 -45.40249,34.47923 -47.92385,34.47923 -0.64899,0 -10.06019,-6.27506 -20.91378,-13.94454 z"
       id="path4189"
       inkscape:connector-curvature="0" />
    <path
       style="fill:#ff46ff;fill-opacity:0;stroke:#000000;stroke-width:0;stroke-miterlimit:4;stroke-opacity:1;stroke-dasharray:none"
       d="M 355.92503,953.5605 C 258.22359,884.52144 181.30835,772.07044 130.06019,623.34338 c -11.64614,-33.7982 -32.440387,-104.7228 -32.440387,-110.647 0,-3.22788 34.568277,14.63643 54.919267,28.3814 20.73197,14.00226 44.27213,47.46603 29.36645,41.7462 -3.87979,-1.48883 -5.6929,1.86769 -4.56061,8.44283 0.221,1.28326 -2.51962,1.92612 -6.09023,1.42857 -5.94374,-0.82823 -6.41381,0.0606 -5.56602,10.52395 0.50931,6.28571 3.00504,13.03571 5.54609,15 4.10881,3.1762 3.92729,3.57142 -1.64029,3.57142 -3.44321,0 -6.26037,1.28572 -6.26037,2.85715 0,1.57143 2.42147,2.85714 5.38105,2.85714 2.97819,0 6.04833,2.55166 6.87537,5.71429 0.89406,3.41885 3.89719,5.71428 7.47609,5.71428 4.43723,0 5.98177,1.8008 5.98177,6.97423 0,6.62749 3.72377,11.0218 10,11.80077 1.57143,0.19514 5.02895,0.55046 7.68338,0.78983 2.65442,0.23943 10.52035,5.3634 17.47983,11.38677 13.17211,11.4004 19.48115,13.57394 63.11319,21.74349 13.9806,2.61768 30.32223,7.26071 36.31475,10.31788 13.84706,7.06423 22.67477,7.1336 24.48992,0.19257 0.77179,-2.95131 4.50856,-6.78088 8.30395,-8.51017 6.95025,-3.16685 9.65588,-11.83823 3.69371,-11.83823 -2.27917,0 -2.22181,-1.18705 0.19826,-4.10308 2.42225,-2.91863 2.55499,-5.69183 0.45983,-9.60666 -2.74749,-5.13371 -1.42366,-5.6808 19.69887,-8.14088 12.45437,-1.45052 25.56046,-1.55858 29.12466,-0.24 4.07965,1.50917 6.85208,1.28202 7.4838,-0.61318 1.44854,-4.34562 6.24157,-3.70634 6.24157,0.83249 0,5.27234 9.351,13.29997 15.49246,13.29997 2.77337,0 5.71494,-2.57143 6.53682,-5.71428 1.81855,-6.95415 1.45635,-6.94398 14.51312,-0.40743 9.534,4.77297 19.34414,7.37834 36.31474,9.6444 4.248,0.56723 5.73412,-0.90706 5.79157,-5.74557 0.0912,-7.67972 12.08852,-14.91998 24.72286,-14.91998 14.08706,0 20.35349,-4.94611 18.43289,-14.54917 l -1.6616,-8.30805 14.74442,0 c 10.55143,0 16.4218,1.55234 20.64286,5.45877 8.70292,8.05423 19.97163,8.88345 21.02152,1.54691 0.57094,-3.98971 -2.89018,-8.84703 -10.87812,-15.26628 -13.33917,-10.71969 -14.62777,-20.41098 -3.07397,-23.11886 9.32326,-2.18509 18.51534,-14.89246 16.15414,-22.33192 -1.28511,-4.04908 -5.29703,-6.40911 -13.15057,-7.73597 -6.21571,-1.05014 -14.19777,-4.28177 -17.73794,-7.18137 l -6.43663,-5.27203 12.92334,0.82757 c 7.10786,0.45518 17.21489,3.04683 22.46012,5.75923 13.15343,6.80192 10.53497,-0.67697 -2.94109,-8.40034 -5.4838,-3.14286 -14.83088,-9.75494 -20.77131,-14.69349 l -10.80077,-8.97922 13.9872,-1.92375 c 7.69297,-1.05805 15.70688,-2.98654 17.80871,-4.28554 5.41609,-3.34731 1.33671,-17.4962 -5.56483,-19.301 -3.02254,-0.7904 -5.33171,-3.5476 -5.13148,-6.12706 1.09034,-14.04548 -0.82209,-23.26137 -4.82703,-23.26137 -2.66666,0 -4.28572,-2.6984 -4.28572,-7.14286 0,-3.92857 -1.24537,-7.14285 -2.76748,-7.14285 -1.52209,0 -2.0274,-1.92857 -1.12289,-4.28572 1.04946,-2.73483 -0.0494,-4.28571 -3.03648,-4.28571 -2.57458,0 -5.40258,1.88023 -6.28443,4.17828 -2.54352,6.62835 -15.36015,-3.07208 -15.36015,-11.62554 0,-3.73451 -2.57142,-8.39591 -5.71428,-10.35866 -3.14286,-1.96274 -5.71429,-4.88277 -5.71429,-6.48894 0,-1.60617 -3.21428,-5.33411 -7.14285,-8.28434 -3.92858,-2.95026 -7.14286,-7.69152 -7.14286,-10.53617 0,-2.84466 -2.10706,-6.35129 -4.68232,-7.79246 -4.02974,-2.25517 -3.43242,-3.54446 4.28572,-9.25072 12.75697,-9.43164 11.29263,-12.69859 -5.69186,-12.69859 -18.7138,0 -24.18511,-6.20714 -14.53023,-16.48431 8.30755,-8.84297 8.01686,-15.72811 -0.83428,-19.76097 -5.49146,-2.50208 -8.74209,-2.42282 -13.90255,0.33898 -5.85251,3.13217 -8.18977,2.69116 -17.83274,-3.36481 -6.62806,-4.16255 -17.83491,-7.75075 -27.82648,-8.90943 -20.88329,-2.42176 -25.83258,-5.04507 -30.42192,-16.12473 -2.6916,-6.49806 -2.84486,-10.57419 -0.58414,-15.5359 3.9568,-8.68424 1.43888,-18.07648 -5.43054,-20.25675 -3.24786,-1.03082 -5.4058,-4.35059 -5.4058,-8.31621 0,-9.51543 -6.7264,-14.39451 -11.65592,-8.45479 -3.23917,3.90294 -3.17017,5.14249 0.4392,7.89238 2.355,1.79424 3.86357,5.83368 3.35232,8.97654 -2.75498,16.93639 -3.71898,18.57142 -10.94929,18.57142 -4.00194,0 -9.76317,1.33096 -12.80272,2.95767 -3.59765,1.92541 -5.52645,1.96394 -5.52645,0.11041 0,-1.56599 -5.02654,-7.82381 -11.17008,-13.90626 -6.8111,-6.74337 -12.57387,-15.98489 -14.76736,-23.68184 -1.97851,-6.94256 -4.66626,-13.84426 -5.97278,-15.33712 -1.30652,-1.49286 -2.3755,-5.11521 -2.3755,-8.04968 0,-4.05646 -1.38634,-4.89538 -5.78348,-3.49978 -4.86698,1.54472 -6.7301,-0.44222 -11.757,-12.53827 -8.05839,-19.39065 -39.60237,-44.27448 -39.60237,-31.24078 0,1.86218 -6.27867,-5.4938 -13.95259,-16.34662 l -13.9526,-19.7324 68.9526,-18.70928 68.95259,-18.70928 155.71428,44.70036 155.71429,44.70035 0.9352,13.92698 c 2.12717,31.67791 -8.20332,130.82746 -21.09852,202.4984 -41.01405,227.95454 -129.25557,407.0222 -248.40811,504.0922 -19.05263,15.5216 -45.40249,34.47923 -47.92385,34.47923 -0.64899,0 -10.06019,-6.27506 -20.91378,-13.94454 z"
       id="path4191"
       inkscape:connector-curvature="0" />
  </g>
  <g
     inkscape:groupmode="layer"
     id="layer2"
     inkscape:label="Inner Shield"
     style="display:none"
     transform="translate(0,-952.36217)">
    <path
       style="fill:none;stroke:#000000;stroke-width:0;stroke-miterlimit:4;stroke-opacity:1;stroke-dasharray:none"
       d="M 340.3308,944.76858 C 242.90343,872.0161 167.10591,755.83907 117.49344,603.21933 104.43061,563.03498 88.982723,507.50504 90.866652,507.50504 c 3.396958,0 47.575468,24.04817 61.672418,33.57083 20.73312,14.00546 44.27099,47.46751 29.36645,41.74811 -3.87979,-1.48883 -5.6929,1.86769 -4.56061,8.44283 0.221,1.28326 -2.51962,1.92612 -6.09023,1.42857 -5.94374,-0.82823 -6.41381,0.0606 -5.56602,10.52395 0.50931,6.28571 3.00504,13.03571 5.54609,15 4.10881,3.1762 3.92729,3.57142 -1.64029,3.57142 -3.44321,0 -6.26037,1.28572 -6.26037,2.85715 0,1.57143 2.42147,2.85714 5.38105,2.85714 2.97819,0 6.04833,2.55166 6.87537,5.71429 0.89406,3.41885 3.89719,5.71428 7.47609,5.71428 4.43723,0 5.98177,1.8008 5.98177,6.97423 0,6.62749 3.72377,11.0218 10,11.80077 1.57143,0.19514 5.02895,0.55046 7.68338,0.78983 2.65442,0.23943 10.52035,5.3634 17.47983,11.38677 13.17211,11.4004 19.48115,13.57394 63.11319,21.74349 13.9806,2.61768 30.32223,7.26071 36.31475,10.31788 13.84706,7.06423 22.67477,7.1336 24.48992,0.19257 0.77179,-2.95131 4.50856,-6.78088 8.30395,-8.51017 6.95025,-3.16685 9.65588,-11.83823 3.69371,-11.83823 -2.27917,0 -2.22181,-1.18705 0.19826,-4.10308 2.42225,-2.91863 2.55499,-5.69183 0.45983,-9.60666 -2.74749,-5.13371 -1.42366,-5.6808 19.69887,-8.14088 12.45437,-1.45052 25.56046,-1.55858 29.12466,-0.24 4.07965,1.50917 6.85208,1.28202 7.4838,-0.61318 1.44854,-4.34562 6.24157,-3.70634 6.24157,0.83249 0,5.27234 9.351,13.29997 15.49246,13.29997 2.77337,0 5.71494,-2.57143 6.53682,-5.71428 1.81855,-6.95415 1.45635,-6.94398 14.51312,-0.40743 9.534,4.77297 19.34414,7.37834 36.31474,9.6444 4.248,0.56723 5.73412,-0.90706 5.79157,-5.74557 0.0912,-7.67972 12.08852,-14.91998 24.72286,-14.91998 14.08706,0 20.35349,-4.94611 18.43289,-14.54917 l -1.6616,-8.30805 14.74442,0 c 10.55143,0 16.4218,1.55234 20.64286,5.45877 8.70292,8.05423 19.97163,8.88345 21.02152,1.54691 0.57094,-3.98971 -2.89018,-8.84703 -10.87812,-15.26628 -13.33917,-10.71969 -14.62777,-20.41098 -3.07397,-23.11886 9.32326,-2.18509 18.51534,-14.89246 16.15414,-22.33192 -1.28511,-4.04908 -5.29703,-6.40911 -13.15057,-7.73597 -6.21571,-1.05014 -14.19777,-4.28177 -17.73794,-7.18137 l -6.43663,-5.27203 12.92334,0.82757 c 7.10786,0.45518 17.21489,3.04683 22.46012,5.75923 13.15343,6.80192 10.53497,-0.67697 -2.94109,-8.40034 -5.4838,-3.14286 -14.83088,-9.75494 -20.77131,-14.69349 l -10.80077,-8.97922 13.9872,-1.92375 c 7.69297,-1.05805 15.70688,-2.98654 17.80871,-4.28554 5.41609,-3.34731 1.33671,-17.4962 -5.56483,-19.301 -3.02254,-0.7904 -5.33171,-3.5476 -5.13148,-6.12706 1.09034,-14.04548 -0.82209,-23.26137 -4.82703,-23.26137 -2.66666,0 -4.28572,-2.6984 -4.28572,-7.14286 0,-3.92857 -1.24537,-7.14285 -2.76748,-7.14285 -1.52209,0 -2.0274,-1.92857 -1.12289,-4.28572 1.04946,-2.73483 -0.0494,-4.28571 -3.03648,-4.28571 -2.57458,0 -5.40258,1.88023 -6.28443,4.17828 -2.54352,6.62835 -15.36015,-3.07208 -15.36015,-11.62554 0,-3.73451 -2.57142,-8.39591 -5.71428,-10.35866 -3.14286,-1.96274 -5.71429,-4.88277 -5.71429,-6.48894 0,-1.60617 -3.21428,-5.33411 -7.14285,-8.28434 -3.92858,-2.95026 -7.14286,-7.69152 -7.14286,-10.53617 0,-2.84466 -2.10706,-6.35129 -4.68232,-7.79246 -4.02974,-2.25517 -3.43242,-3.54446 4.28572,-9.25072 12.75697,-9.43164 11.29263,-12.69859 -5.69186,-12.69859 -18.7138,0 -24.18511,-6.20714 -14.53023,-16.48431 8.30755,-8.84297 8.01686,-15.72811 -0.83428,-19.76097 -5.49146,-2.50208 -8.74209,-2.42282 -13.90255,0.33898 -5.85251,3.13217 -8.18977,2.69116 -17.83274,-3.36481 -6.62806,-4.16255 -17.83491,-7.75075 -27.82648,-8.90943 -20.88329,-2.42176 -25.83258,-5.04507 -30.42192,-16.12473 -2.6916,-6.49806 -2.84486,-10.57419 -0.58414,-15.5359 3.9568,-8.68424 1.43888,-18.07648 -5.43054,-20.25675 -3.24786,-1.03082 -5.4058,-4.35059 -5.4058,-8.31621 0,-9.51543 -6.7264,-14.39451 -11.65592,-8.45479 -3.23917,3.90294 -3.17017,5.14249 0.4392,7.89238 2.355,1.79424 3.86357,5.83368 3.35232,8.97654 -2.75498,16.93639 -3.71898,18.57142 -10.94929,18.57142 -4.00194,0 -9.76317,1.33096 -12.80272,2.95767 -3.59765,1.92541 -5.52645,1.96394 -5.52645,0.11041 0,-1.56599 -5.02654,-7.82381 -11.17008,-13.90626 -6.8111,-6.74337 -12.57387,-15.98489 -14.76736,-23.68184 -1.97851,-6.94256 -4.66626,-13.84426 -5.97278,-15.33712 -1.30652,-1.49286 -2.3755,-5.11521 -2.3755,-8.04968 0,-4.05646 -1.38634,-4.89538 -5.78348,-3.49978 -4.86698,1.54472 -6.7301,-0.44222 -11.757,-12.53827 -8.06859,-19.4152 -39.60237,-44.27149 -39.60237,-31.2163 0,1.87564 -6.56855,-5.91295 -14.59678,-17.30799 -8.02823,-11.39502 -14.13537,-21.08613 -13.57143,-21.53578 0.56394,-0.44966 30.52067,-8.76545 66.57051,-18.47955 l 65.54515,-17.66199 156.9666,45.07324 156.9666,45.07324 -1.92265,38.57143 c -9.66297,193.85432 -64.36092,396.43303 -143.10443,530 -37.48806,63.58829 -104.65943,139.10709 -152.99972,172.01309 l -21.57471,14.68626 -29.85386,-22.29295 0,0 z"
       id="path4137"
       inkscape:connector-curvature="0" />
    <path
       style="fill:none;stroke:#000000;stroke-width:0;stroke-miterlimit:4;stroke-opacity:1;stroke-dasharray:none"
       d="M 340.3308,944.76858 C 242.90343,872.0161 167.10591,755.83907 117.49344,603.21933 104.43061,563.03498 88.982723,507.50504 90.866652,507.50504 c 3.396958,0 47.575468,24.04817 61.672418,33.57083 20.73312,14.00546 44.27099,47.46751 29.36645,41.74811 -3.87979,-1.48883 -5.6929,1.86769 -4.56061,8.44283 0.221,1.28326 -2.51962,1.92612 -6.09023,1.42857 -5.94374,-0.82823 -6.41381,0.0606 -5.56602,10.52395 0.50931,6.28571 3.00504,13.03571 5.54609,15 4.10881,3.1762 3.92729,3.57142 -1.64029,3.57142 -3.44321,0 -6.26037,1.28572 -6.26037,2.85715 0,1.57143 2.42147,2.85714 5.38105,2.85714 2.97819,0 6.04833,2.55166 6.87537,5.71429 0.89406,3.41885 3.89719,5.71428 7.47609,5.71428 4.43723,0 5.98177,1.8008 5.98177,6.97423 0,6.62749 3.72377,11.0218 10,11.80077 1.57143,0.19514 5.02895,0.55046 7.68338,0.78983 2.65442,0.23943 10.52035,5.3634 17.47983,11.38677 13.17211,11.4004 19.48115,13.57394 63.11319,21.74349 13.9806,2.61768 30.32223,7.26071 36.31475,10.31788 13.84706,7.06423 22.67477,7.1336 24.48992,0.19257 0.77179,-2.95131 4.50856,-6.78088 8.30395,-8.51017 6.95025,-3.16685 9.65588,-11.83823 3.69371,-11.83823 -2.27917,0 -2.22181,-1.18705 0.19826,-4.10308 2.42225,-2.91863 2.55499,-5.69183 0.45983,-9.60666 -2.74749,-5.13371 -1.42366,-5.6808 19.69887,-8.14088 12.45437,-1.45052 25.56046,-1.55858 29.12466,-0.24 4.07965,1.50917 6.85208,1.28202 7.4838,-0.61318 1.44854,-4.34562 6.24157,-3.70634 6.24157,0.83249 0,5.27234 9.351,13.29997 15.49246,13.29997 2.77337,0 5.71494,-2.57143 6.53682,-5.71428 1.81855,-6.95415 1.45635,-6.94398 14.51312,-0.40743 9.534,4.77297 19.34414,7.37834 36.31474,9.6444 4.248,0.56723 5.73412,-0.90706 5.79157,-5.74557 0.0912,-7.67972 12.08852,-14.91998 24.72286,-14.91998 14.08706,0 20.35349,-4.94611 18.43289,-14.54917 l -1.6616,-8.30805 14.74442,0 c 10.55143,0 16.4218,1.55234 20.64286,5.45877 8.70292,8.05423 19.97163,8.88345 21.02152,1.54691 0.57094,-3.98971 -2.89018,-8.84703 -10.87812,-15.26628 -13.33917,-10.71969 -14.62777,-20.41098 -3.07397,-23.11886 9.32326,-2.18509 18.51534,-14.89246 16.15414,-22.33192 -1.28511,-4.04908 -5.29703,-6.40911 -13.15057,-7.73597 -6.21571,-1.05014 -14.19777,-4.28177 -17.73794,-7.18137 l -6.43663,-5.27203 12.92334,0.82757 c 7.10786,0.45518 17.21489,3.04683 22.46012,5.75923 13.15343,6.80192 10.53497,-0.67697 -2.94109,-8.40034 -5.4838,-3.14286 -14.83088,-9.75494 -20.77131,-14.69349 l -10.80077,-8.97922 13.9872,-1.92375 c 7.69297,-1.05805 15.70688,-2.98654 17.80871,-4.28554 5.41609,-3.34731 1.33671,-17.4962 -5.56483,-19.301 -3.02254,-0.7904 -5.33171,-3.5476 -5.13148,-6.12706 1.09034,-14.04548 -0.82209,-23.26137 -4.82703,-23.26137 -2.66666,0 -4.28572,-2.6984 -4.28572,-7.14286 0,-3.92857 -1.24537,-7.14285 -2.76748,-7.14285 -1.52209,0 -2.0274,-1.92857 -1.12289,-4.28572 1.04946,-2.73483 -0.0494,-4.28571 -3.03648,-4.28571 -2.57458,0 -5.40258,1.88023 -6.28443,4.17828 -2.54352,6.62835 -15.36015,-3.07208 -15.36015,-11.62554 0,-3.73451 -2.57142,-8.39591 -5.71428,-10.35866 -3.14286,-1.96274 -5.71429,-4.88277 -5.71429,-6.48894 0,-1.60617 -3.21428,-5.33411 -7.14285,-8.28434 -3.92858,-2.95026 -7.14286,-7.69152 -7.14286,-10.53617 0,-2.84466 -2.10706,-6.35129 -4.68232,-7.79246 -4.02974,-2.25517 -3.43242,-3.54446 4.28572,-9.25072 12.75697,-9.43164 11.29263,-12.69859 -5.69186,-12.69859 -18.7138,0 -24.18511,-6.20714 -14.53023,-16.48431 8.30755,-8.84297 8.01686,-15.72811 -0.83428,-19.76097 -5.49146,-2.50208 -8.74209,-2.42282 -13.90255,0.33898 -5.85251,3.13217 -8.18977,2.69116 -17.83274,-3.36481 -6.62806,-4.16255 -17.83491,-7.75075 -27.82648,-8.90943 -20.88329,-2.42176 -25.83258,-5.04507 -30.42192,-16.12473 -2.6916,-6.49806 -2.84486,-10.57419 -0.58414,-15.5359 3.9568,-8.68424 1.43888,-18.07648 -5.43054,-20.25675 -3.24786,-1.03082 -5.4058,-4.35059 -5.4058,-8.31621 0,-9.51543 -6.7264,-14.39451 -11.65592,-8.45479 -3.23917,3.90294 -3.17017,5.14249 0.4392,7.89238 2.355,1.79424 3.86357,5.83368 3.35232,8.97654 -2.75498,16.93639 -3.71898,18.57142 -10.94929,18.57142 -4.00194,0 -9.76317,1.33096 -12.80272,2.95767 -3.59765,1.92541 -5.52645,1.96394 -5.52645,0.11041 0,-1.56599 -5.02654,-7.82381 -11.17008,-13.90626 -6.8111,-6.74337 -12.57387,-15.98489 -14.76736,-23.68184 -1.97851,-6.94256 -4.66626,-13.84426 -5.97278,-15.33712 -1.30652,-1.49286 -2.3755,-5.11521 -2.3755,-8.04968 0,-4.05646 -1.38634,-4.89538 -5.78348,-3.49978 -4.86698,1.54472 -6.7301,-0.44222 -11.757,-12.53827 -8.06859,-19.4152 -39.60237,-44.27149 -39.60237,-31.2163 0,1.87564 -6.56855,-5.91295 -14.59678,-17.30799 -8.02823,-11.39502 -14.13537,-21.08613 -13.57143,-21.53578 0.56394,-0.44966 30.52067,-8.76545 66.57051,-18.47955 l 65.54515,-17.66199 156.9666,45.07324 156.9666,45.07324 -1.92265,38.57143 c -9.66297,193.85432 -64.36092,396.43303 -143.10443,530 -37.48806,63.58829 -104.65943,139.10709 -152.99972,172.01309 l -21.57471,14.68626 -29.85386,-22.29295 0,0 z"
       id="path4139"
       inkscape:connector-curvature="0" />
    <path
       style="fill:none;stroke:#000000;stroke-width:0;stroke-miterlimit:4;stroke-opacity:1;stroke-dasharray:none"
       d="M 340.3308,944.76858 C 242.90343,872.0161 167.10591,755.83907 117.49344,603.21933 104.43061,563.03498 88.982723,507.50504 90.866652,507.50504 c 3.396958,0 47.575468,24.04817 61.672418,33.57083 20.73312,14.00546 44.27099,47.46751 29.36645,41.74811 -3.87979,-1.48883 -5.6929,1.86769 -4.56061,8.44283 0.221,1.28326 -2.51962,1.92612 -6.09023,1.42857 -5.94374,-0.82823 -6.41381,0.0606 -5.56602,10.52395 0.50931,6.28571 3.00504,13.03571 5.54609,15 4.10881,3.1762 3.92729,3.57142 -1.64029,3.57142 -3.44321,0 -6.26037,1.28572 -6.26037,2.85715 0,1.57143 2.42147,2.85714 5.38105,2.85714 2.97819,0 6.04833,2.55166 6.87537,5.71429 0.89406,3.41885 3.89719,5.71428 7.47609,5.71428 4.43723,0 5.98177,1.8008 5.98177,6.97423 0,6.62749 3.72377,11.0218 10,11.80077 1.57143,0.19514 5.02895,0.55046 7.68338,0.78983 2.65442,0.23943 10.52035,5.3634 17.47983,11.38677 13.17211,11.4004 19.48115,13.57394 63.11319,21.74349 13.9806,2.61768 30.32223,7.26071 36.31475,10.31788 13.84706,7.06423 22.67477,7.1336 24.48992,0.19257 0.77179,-2.95131 4.50856,-6.78088 8.30395,-8.51017 6.95025,-3.16685 9.65588,-11.83823 3.69371,-11.83823 -2.27917,0 -2.22181,-1.18705 0.19826,-4.10308 2.42225,-2.91863 2.55499,-5.69183 0.45983,-9.60666 -2.74749,-5.13371 -1.42366,-5.6808 19.69887,-8.14088 12.45437,-1.45052 25.56046,-1.55858 29.12466,-0.24 4.07965,1.50917 6.85208,1.28202 7.4838,-0.61318 1.44854,-4.34562 6.24157,-3.70634 6.24157,0.83249 0,5.27234 9.351,13.29997 15.49246,13.29997 2.77337,0 5.71494,-2.57143 6.53682,-5.71428 1.81855,-6.95415 1.45635,-6.94398 14.51312,-0.40743 9.534,4.77297 19.34414,7.37834 36.31474,9.6444 4.248,0.56723 5.73412,-0.90706 5.79157,-5.74557 0.0912,-7.67972 12.08852,-14.91998 24.72286,-14.91998 14.08706,0 20.35349,-4.94611 18.43289,-14.54917 l -1.6616,-8.30805 14.74442,0 c 10.55143,0 16.4218,1.55234 20.64286,5.45877 8.70292,8.05423 19.97163,8.88345 21.02152,1.54691 0.57094,-3.98971 -2.89018,-8.84703 -10.87812,-15.26628 -13.33917,-10.71969 -14.62777,-20.41098 -3.07397,-23.11886 9.32326,-2.18509 18.51534,-14.89246 16.15414,-22.33192 -1.28511,-4.04908 -5.29703,-6.40911 -13.15057,-7.73597 -6.21571,-1.05014 -14.19777,-4.28177 -17.73794,-7.18137 l -6.43663,-5.27203 12.92334,0.82757 c 7.10786,0.45518 17.21489,3.04683 22.46012,5.75923 13.15343,6.80192 10.53497,-0.67697 -2.94109,-8.40034 -5.4838,-3.14286 -14.83088,-9.75494 -20.77131,-14.69349 l -10.80077,-8.97922 13.9872,-1.92375 c 7.69297,-1.05805 15.70688,-2.98654 17.80871,-4.28554 5.41609,-3.34731 1.33671,-17.4962 -5.56483,-19.301 -3.02254,-0.7904 -5.33171,-3.5476 -5.13148,-6.12706 1.09034,-14.04548 -0.82209,-23.26137 -4.82703,-23.26137 -2.66666,0 -4.28572,-2.6984 -4.28572,-7.14286 0,-3.92857 -1.24537,-7.14285 -2.76748,-7.14285 -1.52209,0 -2.0274,-1.92857 -1.12289,-4.28572 1.04946,-2.73483 -0.0494,-4.28571 -3.03648,-4.28571 -2.57458,0 -5.40258,1.88023 -6.28443,4.17828 -2.54352,6.62835 -15.36015,-3.07208 -15.36015,-11.62554 0,-3.73451 -2.57142,-8.39591 -5.71428,-10.35866 -3.14286,-1.96274 -5.71429,-4.88277 -5.71429,-6.48894 0,-1.60617 -3.21428,-5.33411 -7.14285,-8.28434 -3.92858,-2.95026 -7.14286,-7.69152 -7.14286,-10.53617 0,-2.84466 -2.10706,-6.35129 -4.68232,-7.79246 -4.02974,-2.25517 -3.43242,-3.54446 4.28572,-9.25072 12.75697,-9.43164 11.29263,-12.69859 -5.69186,-12.69859 -18.7138,0 -24.18511,-6.20714 -14.53023,-16.48431 8.30755,-8.84297 8.01686,-15.72811 -0.83428,-19.76097 -5.49146,-2.50208 -8.74209,-2.42282 -13.90255,0.33898 -5.85251,3.13217 -8.18977,2.69116 -17.83274,-3.36481 -6.62806,-4.16255 -17.83491,-7.75075 -27.82648,-8.90943 -20.88329,-2.42176 -25.83258,-5.04507 -30.42192,-16.12473 -2.6916,-6.49806 -2.84486,-10.57419 -0.58414,-15.5359 3.9568,-8.68424 1.43888,-18.07648 -5.43054,-20.25675 -3.24786,-1.03082 -5.4058,-4.35059 -5.4058,-8.31621 0,-9.51543 -6.7264,-14.39451 -11.65592,-8.45479 -3.23917,3.90294 -3.17017,5.14249 0.4392,7.89238 2.355,1.79424 3.86357,5.83368 3.35232,8.97654 -2.75498,16.93639 -3.71898,18.57142 -10.94929,18.57142 -4.00194,0 -9.76317,1.33096 -12.80272,2.95767 -3.59765,1.92541 -5.52645,1.96394 -5.52645,0.11041 0,-1.56599 -5.02654,-7.82381 -11.17008,-13.90626 -6.8111,-6.74337 -12.57387,-15.98489 -14.76736,-23.68184 -1.97851,-6.94256 -4.66626,-13.84426 -5.97278,-15.33712 -1.30652,-1.49286 -2.3755,-5.11521 -2.3755,-8.04968 0,-4.05646 -1.38634,-4.89538 -5.78348,-3.49978 -4.86698,1.54472 -6.7301,-0.44222 -11.757,-12.53827 -8.06859,-19.4152 -39.60237,-44.27149 -39.60237,-31.2163 0,1.87564 -6.56855,-5.91295 -14.59678,-17.30799 -8.02823,-11.39502 -14.13537,-21.08613 -13.57143,-21.53578 0.56394,-0.44966 30.52067,-8.76545 66.57051,-18.47955 l 65.54515,-17.66199 156.9666,45.07324 156.9666,45.07324 -1.92265,38.57143 c -9.66297,193.85432 -64.36092,396.43303 -143.10443,530 -37.48806,63.58829 -104.65943,139.10709 -152.99972,172.01309 l -21.57471,14.68626 -29.85386,-22.29295 0,0 z"
       id="path4141"
       inkscape:connector-curvature="0" />
  </g>
  <g
     inkscape:groupmode="layer"
     id="layer4"
     inkscape:label="Splat"
     style="display:inline"
     transform="translate(0,-952.36217)">
    <path
       style="fill:#ffffff;fill-opacity:1"
       d="m 34.80295,1017.109 -0.30895,-0.012 -0.96235,-0.5084 -0.96235,-0.5083 -1.5059,-0.3624 -1.5059,-0.3624 -1.80116,-0.2378 -1.80115,-0.2378 -0.88138,-0.4059 -0.88139,-0.4059 -0.76328,-0.7946 -0.76328,-0.7947 -0.57209,-0.144 -0.5721,-0.1441 -0.31104,-0.2519 -0.31106,-0.2518 -0.22158,0.2736 -0.22158,0.2737 -0.25254,-0.3855 -0.25253,-0.3854 0,-0.5729 0,-0.5729 -0.35822,0 c -0.19702,0 -0.51496,-0.06 -0.70652,-0.1324 l -0.34832,-0.1324 0.0219,-0.1678 c 0.012,-0.092 0.0148,-0.3069 0.006,-0.477 l -0.0158,-0.3091 -0.5535,0.042 -0.5535,0.042 -0.0523,-0.1498 -0.0523,-0.1498 0.30565,-0.1024 c 0.1681,-0.056 0.51578,-0.109 0.77261,-0.117 l 0.46697,-0.015 0.0509,-0.1334 0.0509,-0.1334 -0.60215,-0.1701 -0.60213,-0.1701 -0.064,-0.7638 c -0.0352,-0.4202 -0.10169,-0.854 -0.14782,-0.964 l -0.0838,-0.2002 0.11,-0.1724 0.11002,-0.1723 0.55461,0.1246 0.5546,0.1246 -0.073,-0.291 -0.073,-0.291 0.14421,-0.3793 0.14422,-0.3793 0.27549,0.2493 0.27549,0.2494 0.18243,-0.2495 0.18244,-0.2495 -0.19611,-0.4694 -0.19613,-0.4694 -0.51726,-0.5612 -0.51727,-0.5611 -0.0869,-0.3859 -0.0869,-0.3859 -0.76178,-0.5072 c -0.41898,-0.279 -1.26413,-0.8569 -1.87812,-1.2844 -0.61398,-0.4275 -1.36446,-0.9114 -1.66773,-1.0754 -0.30328,-0.1639 -1.03172,-0.5347 -1.61876,-0.8239 -0.58704,-0.2891 -1.21745,-0.6145 -1.4009,-0.723 -0.18345,-0.1085 -0.9071,-0.4902 -1.60811,-0.8483 l -1.27458,-0.651 -0.17602,-0.2121 -0.17602,-0.2121 0.18547,0 c 0.10201,0 1.23509,0.5302 2.51795,1.1783 1.28286,0.6481 2.63266,1.3458 2.99956,1.5505 0.3669,0.2046 0.9823,0.5494 1.36755,0.766 0.38524,0.2167 0.70044,0.3634 0.70044,0.3261 0,-0.037 -0.0616,-0.2298 -0.13682,-0.4277 l -0.1368,-0.3598 0.0791,-0.2492 0.0791,-0.2493 0.2769,0 0.27691,0 0.6503,0.6503 0.65029,0.6503 -0.0767,0.2 -0.0768,0.2001 -0.2924,0.1305 -0.29241,0.1306 0.7338,0.4672 c 0.40359,0.2569 0.94394,0.5309 1.20077,0.6089 0.25683,0.078 0.70268,0.1815 0.99076,0.2301 l 0.52378,0.088 1.18857,0.5969 1.18856,0.597 0.18065,-0.15 0.18066,-0.1499 0.7308,-0.021 0.73082,-0.021 -0.0826,-0.1359 c -0.0454,-0.075 -0.22049,-0.2453 -0.38905,-0.3791 -0.16855,-0.1337 -0.30646,-0.3091 -0.30646,-0.3897 0,-0.081 0.088,-0.2438 0.19548,-0.3626 l 0.19548,-0.216 -0.19548,-0.3768 -0.19548,-0.3768 0,-0.3152 0,-0.3152 0.32701,-0.2143 0.32702,-0.2142 0.26643,0.085 0.26643,0.085 0.2157,-0.4171 0.2157,-0.4171 0.0411,-1.0056 0.0411,-1.0055 0.18379,-0.1164 c 0.10108,-0.064 0.31236,-0.1174 0.46951,-0.1185 l 0.28573,0 0.0872,-0.3474 0.0872,-0.3474 0.40452,-0.1527 0.40451,-0.1527 -0.0681,-0.3338 c -0.0375,-0.1835 -0.13068,-0.6039 -0.20713,-0.9341 -0.0765,-0.3302 -0.17308,-0.8249 -0.21475,-1.0992 l -0.0758,-0.4989 -0.81807,-1.0355 c -0.44994,-0.5695 -0.86007,-1.0655 -0.91137,-1.1022 -0.0513,-0.037 -0.22071,-0.2768 -0.37643,-0.5336 l -0.28313,-0.467 0,-0.2705 0,-0.2705 0.20396,-0.2912 0.20397,-0.2912 0.44841,-0.084 0.44841,-0.084 0.94246,0.2584 0.94247,0.2585 0.13961,-0.1397 0.13967,-0.1396 0,-0.4906 0,-0.4907 -0.21954,-0.1831 c -0.12074,-0.1007 -0.526,-0.3066 -0.90058,-0.4575 l -0.68103,-0.2744 -0.0415,-0.2836 -0.0414,-0.2836 0.28885,-0.1546 0.28885,-0.1546 0.93614,0.094 0.93612,0.094 0.11527,-0.1819 0.11526,-0.182 -0.002,-0.4002 -0.002,-0.4003 -0.23419,-0.2668 c -0.1288,-0.1468 -0.41199,-0.3755 -0.62929,-0.5083 -0.21732,-0.1328 -0.66499,-0.3672 -0.99481,-0.521 -0.32984,-0.1538 -0.90021,-0.3596 -1.26748,-0.4574 -0.36729,-0.098 -0.83007,-0.1786 -1.02841,-0.1795 -0.19835,-9e-4 -0.49923,-0.065 -0.66863,-0.1419 l -0.308,-0.1403 -0.22708,-0.3957 -0.22708,-0.3956 -0.23835,-0.074 c -0.1311,-0.041 -0.43221,-0.1583 -0.66913,-0.261 l -0.43077,-0.1869 0.0777,-0.2025 0.0777,-0.2025 -0.24732,-0.088 c -0.13604,-0.049 -0.3524,-0.1784 -0.48082,-0.2887 l -0.23348,-0.2005 0,-0.6197 0,-0.6198 0.1601,-0.1601 0.16011,-0.1601 0.489,0 0.489,0 0.34129,0.2685 0.3413,0.2684 0.0909,0.4138 0.0909,0.4137 -0.26862,0.3633 -0.26861,0.3633 0.72467,0.3555 0.72466,0.3554 0.60523,0.5578 0.60523,0.5579 0.78402,0.1616 0.78404,0.1616 0.60901,-0.1299 0.60902,-0.1299 0,-0.1226 0,-0.1227 -0.25256,0 -0.25256,0 -0.081,-0.211 c -0.0446,-0.1161 -0.081,-0.2324 -0.081,-0.2584 0,-0.026 0.20431,-0.014 0.45405,0.026 l 0.45405,0.074 0.15103,-0.2822 0.15103,-0.2822 0.20568,0 0.20569,0 0.74528,0.5336 0.74526,0.5337 0.23725,0 c 0.13048,0 0.27103,-0.055 0.31233,-0.1215 0.0413,-0.067 0.0827,-0.292 0.092,-0.5003 0.009,-0.2084 0.0445,-0.4883 0.0783,-0.6221 l 0.0614,-0.2432 0.23868,0.216 0.23869,0.216 0.42179,-0.5325 0.42179,-0.5326 0.26777,-0.085 0.26779,-0.085 0.19372,0.1608 0.19373,0.1608 0,0.3839 0,0.3839 -0.26684,0.2669 c -0.14676,0.1467 -0.32688,0.2668 -0.40026,0.2668 -0.0734,0 -0.13342,0.06 -0.13342,0.1334 l 0,0.1334 0.3951,0 0.39508,0 0.2053,-0.6913 c 0.11291,-0.3802 0.20529,-0.836 0.20529,-1.0129 l 0,-0.3217 -0.26331,-0.3347 -0.26332,-0.3348 0.32649,-0.4201 c 0.17958,-0.231 0.53823,-0.6236 0.79699,-0.8724 l 0.4705,-0.4524 0,-0.3069 0,-0.3069 -0.12961,-0.08 c -0.0713,-0.044 -0.24789,-0.3475 -0.39245,-0.6743 l -0.26283,-0.5942 -0.33401,-0.1522 -0.33403,-0.1521 -0.0765,-0.1993 -0.0765,-0.1993 0.16025,-0.4431 0.16026,-0.4432 -0.15713,-0.3448 -0.15711,-0.3449 -0.64878,0.086 -0.64879,0.086 -0.61428,-0.2717 -0.61429,-0.2717 0.0809,-0.6828 0.0809,-0.6828 -0.33136,-0.361 c -0.18225,-0.1985 -0.74629,-0.9759 -1.25342,-1.7276 -0.50712,-0.7516 -1.14771,-1.6822 -1.42352,-2.068 -0.27581,-0.3857 -0.6594,-0.9415 -0.8524,-1.235 -0.19302,-0.2935 -0.74786,-1.1341 -1.23298,-1.8678 -0.48511,-0.7338 -0.95708,-1.4135 -1.04881,-1.5105 l -0.16677,-0.1764 0,-0.2573 0,-0.2573 0.11758,0 c 0.0647,0 0.26508,0.1951 0.44535,0.4336 0.18028,0.2385 0.53709,0.7338 0.79291,1.1007 0.25582,0.3669 0.6974,0.9973 0.98128,1.4009 0.28388,0.4036 0.69158,0.9929 0.906,1.3096 l 0.38985,0.5757 0.26664,-0.2862 0.26665,-0.2862 0.35176,0.088 0.35177,0.088 0.71073,0.5475 c 0.3909,0.3011 0.92086,0.7917 1.17769,1.0903 l 0.46696,0.5429 0.23975,0.5337 c 0.13187,0.2935 0.30963,0.7515 0.39501,1.0178 l 0.15525,0.4842 0.25072,0.2269 0.25071,0.2269 0.26917,-0.1441 c 0.14804,-0.079 0.37084,-0.144 0.49512,-0.144 l 0.22594,0 -0.0847,0.53 -0.0847,0.5299 0.31691,0.2077 0.31692,0.2076 0.0823,0.6008 0.0823,0.6007 0.49672,1.0187 0.49673,1.0186 0.70967,0.5449 0.70966,0.5448 0.0815,0.3336 c 0.0448,0.1834 0.1417,0.4099 0.21532,0.5033 l 0.13386,0.1698 0.28135,-0.085 c 0.15474,-0.047 0.40143,-0.1909 0.5482,-0.3204 l 0.26683,-0.2352 0.26684,0.062 c 0.14676,0.034 0.45049,0.092 0.67494,0.1288 l 0.40811,0.066 0.22378,-0.512 0.22378,-0.5119 0.1426,-0.9304 0.14258,-0.9303 -0.23295,-0.1704 c -0.12812,-0.094 -0.28567,-0.1703 -0.35014,-0.1703 l -0.1172,0 0.0426,-0.2866 0.0426,-0.2865 0.2223,-0.1394 0.22231,-0.1393 0.2113,0.1754 0.21131,0.1754 0,0.5731 c 0,0.3153 0.0364,0.6681 0.081,0.7842 l 0.081,0.211 0.22288,0 c 0.12259,0 0.35172,0.09 0.50919,0.2006 l 0.28631,0.2005 0.15375,0.4659 0.15375,0.4658 -0.21025,0.4215 -0.21025,0.4214 0,0.4882 0,0.4883 0.31841,0.6587 0.3184,0.6587 0.26808,0.2416 0.26807,0.2415 0.86502,0.1225 c 0.47576,0.067 1.02642,0.1839 1.2237,0.2589 l 0.3587,0.1364 0.53171,-0.085 0.53172,-0.085 0.35983,0.3376 0.35983,0.3377 0.41487,0.087 0.41485,0.087 0.37727,0.3938 0.37725,0.3938 0.2497,0 0.2497,0 0.51396,-0.4131 0.51394,-0.413 0.31209,0.094 c 0.17166,0.052 0.47721,0.2491 0.679,0.438 l 0.3669,0.3435 0,0.3291 0,0.3291 -0.53367,0.4927 -0.53368,0.4927 0,0.545 0,0.5451 0.43361,0.309 0.43361,0.309 0.60039,0 c 0.33021,-0.001 0.88557,-0.053 1.23412,-0.1149 l 0.63374,-0.113 0,0.2066 0,0.2067 -0.54,0.3755 c -0.29699,0.2066 -0.72589,0.5325 -0.95309,0.7242 l -0.4131,0.3486 0.0937,0.1517 0.0937,0.1517 0.30935,0 0.30933,0 0.16702,0.2013 0.16703,0.2012 -0.0762,0.4696 -0.0762,0.4696 0.5259,0.2279 0.52589,0.2278 0,0.2873 0,0.2872 0.23349,-0.018 0.23348,-0.018 0.0424,0.3689 0.0424,0.3689 0.42457,0.1775 c 0.2335,0.098 0.50934,0.2797 0.61298,0.4046 l 0.18843,0.2272 -0.22751,0.4771 c -0.12512,0.2624 -0.20228,0.5023 -0.17144,0.5332 0.0308,0.031 0.31859,0.1885 0.63946,0.3503 l 0.5834,0.2944 0.0408,0.2212 0.0408,0.2212 -0.33112,0.3124 -0.33113,0.3125 -0.2496,0.7483 -0.24962,0.7483 0.051,0.1531 0.051,0.1531 0.38396,-0.2268 0.38394,-0.2268 0.0884,-0.4078 c 0.0486,-0.2242 0.32165,-0.873 0.60679,-1.4417 l 0.51844,-1.034 0.26535,0 0.26535,0 0,0.2089 c 0,0.1149 -0.0637,0.3279 -0.14149,0.4733 l -0.14149,0.2644 0.37497,-0.04 0.37497,-0.04 -0.0128,0.3335 c -0.007,0.1835 -0.0371,0.5137 -0.0667,0.7338 l -0.0539,0.4003 0.50903,0.042 0.50905,0.042 -0.0901,0.425 c -0.0495,0.2338 -0.0977,0.4551 -0.10715,0.4918 -0.009,0.037 0.064,0.2605 0.16299,0.4973 l 0.18009,0.4306 -0.27125,0.4597 -0.27125,0.4598 0.2005,0.077 c 0.11029,0.042 0.37418,0.077 0.58643,0.077 l 0.38592,0 0.20165,0.3899 0.20165,0.39 0.0353,0.4439 0.0353,0.4439 -1.00064,0.1796 c -0.55035,0.099 -1.33086,0.2488 -1.73445,0.3335 l -0.7338,0.154 0,0.1792 0,0.1792 0.5024,0.1727 0.50239,0.1727 0.4699,0.5361 0.46992,0.536 0.76214,0.4464 c 0.41917,0.2456 0.92406,0.5298 1.12197,0.6318 0.1979,0.1019 0.39114,0.2669 0.42942,0.3667 l 0.0696,0.1814 -0.14999,0 c -0.0825,0 -0.33577,-0.1366 -0.56284,-0.3035 -0.22706,-0.167 -0.72117,-0.4672 -1.09799,-0.6671 -0.37685,-0.2 -0.71644,-0.3636 -0.75467,-0.3636 l -0.0695,0 0.0751,0.2872 0.0751,0.2872 -0.5707,-0.077 -0.5707,-0.076 -0.42383,-0.4108 c -0.2331,-0.2259 -0.466,-0.4108 -0.51754,-0.4108 l -0.0937,0 0,0.2359 0,0.2359 0.33519,0.4932 0.33519,0.4933 0.57619,0.3377 0.57619,0.3376 0.6563,0.078 c 0.36095,0.043 0.8136,0.1375 1.00588,0.2097 l 0.3496,0.1314 0.14713,0.323 0.14715,0.3229 -0.0752,0.2351 c -0.0414,0.1293 -0.14482,0.3851 -0.22991,0.5686 -0.0851,0.1834 -0.27475,0.4611 -0.42151,0.6169 l -0.26683,0.2834 -0.51687,0.078 -0.51688,0.078 -0.23828,0.2157 -0.23829,0.2156 -0.0815,0.3249 -0.0815,0.3249 0.19273,0.3727 0.19272,0.3727 1.01087,0.8362 1.01088,0.8361 -0.002,0.291 c -0.001,0.16 -0.0544,0.3736 -0.1184,0.4746 l -0.11634,0.1837 -0.65777,-0.1578 -0.65776,-0.1578 -0.23146,-0.3918 -0.23145,-0.3919 -0.25932,-0.1387 -0.25931,-0.1388 -1.40008,-0.045 -1.40009,-0.045 -0.22166,0.162 -0.22165,0.1621 0.15358,0.4406 c 0.0845,0.2423 0.15358,0.5803 0.15358,0.7511 l 0,0.3106 -0.36089,0.2365 -0.36088,0.2366 -1.13645,0.019 -1.13644,0.019 -0.18668,0.2811 -0.18668,0.2812 -0.42815,0 -0.42814,0 -0.18292,0.3418 -0.18292,0.3417 0.16671,0.267 0.16672,0.2669 -0.082,0.2585 -0.0821,0.2585 -0.2426,0 c -0.13342,0 -0.41456,-0.09 -0.62475,-0.1993 l -0.38215,-0.1993 -0.55188,-10e-4 -0.55188,0 -1.24928,-0.5823 c -0.68709,-0.3202 -1.41437,-0.6216 -1.61617,-0.6696 l -0.3669,-0.087 0,0.3822 0,0.3821 -0.24398,0.2208 -0.244,0.2208 -0.34257,0 -0.34258,0 -0.41408,-0.4716 -0.41407,-0.4716 0,-0.2355 0,-0.2356 -0.16011,-0.1601 c -0.088,-0.088 -0.23115,-0.1601 -0.31799,-0.1601 l -0.15787,0 -0.0698,0.2669 -0.0698,0.2668 -0.21794,0 c -0.11986,0 -0.46384,-0.1254 -0.7644,-0.2788 l -0.54645,-0.2787 -0.0951,0.1538 -0.0951,0.1538 -0.38716,0.05 c -0.21294,0.028 -1.08892,0.09 -1.94663,0.1376 l -1.55947,0.087 -0.23974,0.1753 -0.23975,0.1753 0.31925,0.5681 0.31925,0.568 -0.3633,0.3125 -0.3633,0.3125 0.0566,0.3658 0.0566,0.3657 0.10111,-0.3002 0.10109,-0.3002 0.19343,0 0.19343,0 -0.0422,0.3669 -0.0422,0.3669 -0.70045,0.3325 -0.70045,0.3324 0,0.3633 0,0.3634 -0.25806,0.1381 c -0.14194,0.076 -0.39711,0.1324 -0.56703,0.1256 z"
       id="path4127"
       inkscape:connector-curvature="0" />
    <path
       style="fill:#ffffff;fill-opacity:1;stroke:#000000;stroke-width:0;stroke-miterlimit:4;stroke-opacity:1;stroke-dasharray:none"
       d="m 313.82767,1032.9659 c -9.74273,-7.2753 -17.32249,-18.893 -22.28373,-34.15497 -1.30629,-4.0184 -2.85108,-9.5714 -2.66268,-9.5714 0.33969,0 4.75754,2.4048 6.16724,3.3571 2.07331,1.4005 4.4271,4.7467 2.93664,4.1748 -0.38797,-0.1489 -0.56929,0.1868 -0.45606,0.8443 0.0221,0.1283 -0.25196,0.1926 -0.60902,0.1428 -0.59437,-0.083 -0.64138,0.01 -0.5566,1.0524 0.0509,0.6286 0.3005,1.30357 0.55461,1.49997 0.41088,0.3177 0.39273,0.3572 -0.16403,0.3572 -0.34432,0 -0.62604,0.1286 -0.62604,0.2857 0,0.1571 0.24215,0.2857 0.53811,0.2857 0.29782,0 0.60483,0.2552 0.68753,0.5714 0.0894,0.3419 0.38972,0.5715 0.74761,0.5715 0.44373,0 0.59818,0.18 0.59818,0.6974 0,0.6627 0.37238,1.1022 1,1.1801 0.15714,0.019 0.50289,0.055 0.76834,0.079 0.26544,0.024 1.05203,0.5363 1.74798,1.1386 1.31721,1.1401 1.94812,1.3574 6.31132,2.1744 1.39806,0.2618 3.03222,0.7261 3.63147,1.0318 1.38471,0.7064 2.26748,0.7133 2.449,0.019 0.0772,-0.2951 0.45085,-0.6781 0.83039,-0.851 0.69503,-0.3167 0.96559,-1.1839 0.36937,-1.1839 -0.22791,0 -0.22218,-0.1187 0.0198,-0.4103 0.24222,-0.2918 0.2555,-0.5691 0.046,-0.9606 -0.27475,-0.5134 -0.14236,-0.5681 1.96989,-0.8141 1.24544,-0.1451 2.55604,-0.1559 2.91246,-0.024 0.40797,0.1509 0.68521,0.1282 0.74838,-0.061 0.14486,-0.4346 0.62416,-0.3706 0.62416,0.083 0,0.5272 0.9351,1.33 1.54925,1.33 0.27733,0 0.57149,-0.2572 0.65368,-0.5714 0.18185,-0.6955 0.14563,-0.6944 1.45131,-0.041 0.9534,0.4773 1.93442,0.7378 3.63148,0.9644 0.4248,0.057 0.57341,-0.091 0.57915,-0.5746 0.009,-0.7679 1.20885,-1.492 2.47229,-1.492 1.4087,0 2.03535,-0.4946 1.84329,-1.4549 l -0.16616,-0.8308 1.47444,0 c 1.05514,0 1.64218,0.1553 2.06429,0.5459 0.87029,0.8054 1.99716,0.8883 2.10215,0.1547 0.0571,-0.399 -0.28902,-0.8847 -1.08781,-1.5266 -1.33392,-1.07197 -1.46278,-2.04107 -0.3074,-2.31187 0.93232,-0.2185 1.85153,-1.4893 1.61541,-2.2332 -0.12851,-0.4049 -0.5297,-0.6409 -1.31505,-0.7736 -0.62158,-0.105 -1.41978,-0.4282 -1.7738,-0.7182 l -0.64366,-0.5272 1.29233,0.083 c 0.71079,0.045 1.72149,0.3047 2.24601,0.576 1.31535,0.6802 1.0535,-0.068 -0.2941,-0.8401 -0.54838,-0.3143 -1.48309,-0.9755 -2.07714,-1.4693 l -1.08007,-0.8979 1.39872,-0.1924 c 0.76929,-0.1058 1.57069,-0.2987 1.78087,-0.4286 0.54161,-0.3347 0.13367,-1.7496 -0.55648,-1.9301 -0.30226,-0.079 -0.53318,-0.3547 -0.51315,-0.6127 0.10903,-1.40452 -0.0822,-2.32611 -0.48271,-2.32611 -0.26666,0 -0.42857,-0.26984 -0.42857,-0.71429 0,-0.39285 -0.12453,-0.71428 -0.27675,-0.71428 -0.1522,0 -0.20274,-0.19286 -0.11228,-0.42857 0.10494,-0.27349 -0.005,-0.42857 -0.30365,-0.42857 -0.25746,0 -0.54026,0.18802 -0.62845,0.41782 -0.25435,0.66284 -1.53601,-0.3072 -1.53601,-1.16255 0,-0.37345 -0.25714,-0.83959 -0.57143,-1.03587 -0.31428,-0.19627 -0.57143,-0.48827 -0.57143,-0.64889 0,-0.16062 -0.32143,-0.53341 -0.71428,-0.82843 -0.39286,-0.29503 -0.71429,-0.76916 -0.71429,-1.05362 0,-0.28447 -0.2107,-0.63513 -0.46823,-0.77925 -0.40297,-0.22551 -0.34324,-0.35444 0.42857,-0.92507 1.2757,-0.94316 1.12926,-1.26986 -0.56918,-1.26986 -1.87138,0 -2.41852,-0.62071 -1.45303,-1.64843 0.83076,-0.8843 0.80169,-1.57281 -0.0834,-1.9761 -0.54914,-0.2502 -0.8742,-0.24228 -1.39025,0.0339 -0.58525,0.31322 -0.81898,0.26912 -1.78327,-0.33648 -0.66281,-0.41625 -1.7835,-0.77507 -2.78265,-0.89094 -2.08833,-0.24218 -2.58326,-0.50451 -3.04219,-1.61247 -0.26916,-0.64981 -0.28449,-1.05742 -0.0584,-1.55359 0.39568,-0.86843 0.14389,-1.80765 -0.54305,-2.02568 -0.32479,-0.10308 -0.54058,-0.43506 -0.54058,-0.83162 0,-0.95154 -0.67264,-1.43945 -1.16559,-0.84548 -0.32392,0.39029 -0.31702,0.51425 0.0439,0.78924 0.2355,0.17942 0.38635,0.58337 0.33523,0.89765 -0.2755,1.69364 -0.3719,1.85714 -1.09493,1.85714 -0.4002,0 -0.97632,0.1331 -1.28027,0.29577 -0.35977,0.19254 -0.55265,0.1964 -0.55265,0.011 0,-0.1566 -0.50265,-0.78238 -1.11701,-1.39062 -0.68111,-0.67434 -1.25738,-1.59849 -1.47673,-2.36819 -0.19785,-0.69425 -0.46663,-1.38442 -0.59728,-1.53371 -0.13065,-0.14929 -0.23755,-0.51152 -0.23755,-0.80497 0,-0.40564 -0.13863,-0.48954 -0.57835,-0.34998 -0.4867,0.15448 -0.67301,-0.0442 -1.1757,-1.25382 -0.80686,-1.94152 -3.96024,-4.42715 -3.96024,-3.12163 0,0.18756 -0.65685,-0.5913 -1.45967,-1.7308 -0.80283,-1.1395 -1.41354,-2.10861 -1.35715,-2.15358 0.0564,-0.045 3.05207,-0.87654 6.65705,-1.84795 l 6.55452,-1.7662 15.69666,4.50732 15.69666,4.50732 -0.19227,3.85715 c -0.96629,19.38543 -6.43609,39.64326 -14.31044,52.99996 -3.7488,6.3588 -10.46594,13.9107 -15.29997,17.2013 l -2.15747,1.4686 -2.98539,-2.2293 0,0 z"
       id="path4133"
       inkscape:connector-curvature="0" />
    <path
       style="fill:none;stroke:#000000;stroke-width:0;stroke-miterlimit:4;stroke-opacity:1;stroke-dasharray:none"
       d="m 342.3991,1147.2516 c -9.74273,-7.2753 -17.32249,-18.893 -22.28373,-34.155 -1.30629,-4.0184 -2.85108,-9.5714 -2.66268,-9.5714 0.33969,0 4.75754,2.4048 6.16724,3.3571 2.07331,1.4005 4.4271,4.7467 2.93664,4.1748 -0.38797,-0.1489 -0.56929,0.1868 -0.45606,0.8443 0.0221,0.1283 -0.25196,0.1926 -0.60902,0.1428 -0.59437,-0.083 -0.64138,0.01 -0.5566,1.0524 0.0509,0.6286 0.3005,1.3036 0.55461,1.5 0.41088,0.3177 0.39273,0.3572 -0.16403,0.3572 -0.34432,0 -0.62604,0.1286 -0.62604,0.2857 0,0.1571 0.24215,0.2857 0.53811,0.2857 0.29782,0 0.60483,0.2552 0.68753,0.5714 0.0894,0.3419 0.38972,0.5715 0.74761,0.5715 0.44373,0 0.59818,0.18 0.59818,0.6974 0,0.6627 0.37238,1.1022 1,1.1801 0.15714,0.019 0.50289,0.055 0.76834,0.079 0.26544,0.024 1.05203,0.5363 1.74798,1.1386 1.31721,1.1401 1.94812,1.3574 6.31132,2.1744 1.39806,0.2618 3.03222,0.7261 3.63147,1.0318 1.38471,0.7064 2.26748,0.7133 2.449,0.019 0.0772,-0.2951 0.45085,-0.6781 0.83039,-0.851 0.69503,-0.3167 0.96559,-1.1839 0.36937,-1.1839 -0.22791,0 -0.22218,-0.1187 0.0198,-0.4103 0.24222,-0.2918 0.2555,-0.5691 0.046,-0.9606 -0.27475,-0.5134 -0.14236,-0.5681 1.96989,-0.8141 1.24544,-0.1451 2.55604,-0.1559 2.91246,-0.024 0.40797,0.1509 0.68521,0.1282 0.74838,-0.061 0.14486,-0.4346 0.62416,-0.3706 0.62416,0.083 0,0.5272 0.9351,1.33 1.54925,1.33 0.27733,0 0.57149,-0.2572 0.65368,-0.5714 0.18185,-0.6955 0.14563,-0.6944 1.45131,-0.041 0.9534,0.4773 1.93442,0.7378 3.63148,0.9644 0.4248,0.057 0.57341,-0.091 0.57915,-0.5746 0.009,-0.7679 1.20885,-1.492 2.47229,-1.492 1.4087,0 2.03535,-0.4946 1.84329,-1.4549 l -0.16616,-0.8308 1.47444,0 c 1.05514,0 1.64218,0.1553 2.06429,0.5459 0.87029,0.8054 1.99716,0.8883 2.10215,0.1547 0.0571,-0.399 -0.28902,-0.8847 -1.08781,-1.5266 -1.33392,-1.072 -1.46278,-2.0411 -0.3074,-2.3119 0.93232,-0.2185 1.85153,-1.4893 1.61541,-2.2332 -0.12851,-0.4049 -0.5297,-0.6409 -1.31505,-0.7736 -0.62158,-0.105 -1.41978,-0.4282 -1.7738,-0.7182 l -0.64366,-0.5272 1.29233,0.083 c 0.71079,0.045 1.72149,0.3047 2.24601,0.576 1.31535,0.6802 1.0535,-0.068 -0.2941,-0.8401 -0.54838,-0.3143 -1.48309,-0.9755 -2.07714,-1.4693 l -1.08007,-0.8979 1.39872,-0.1924 c 0.76929,-0.1058 1.57069,-0.2987 1.78087,-0.4286 0.54161,-0.3347 0.13367,-1.7496 -0.55648,-1.9301 -0.30226,-0.079 -0.53318,-0.3547 -0.51315,-0.6127 0.10903,-1.4045 -0.0822,-2.3261 -0.48271,-2.3261 -0.26666,0 -0.42857,-0.2698 -0.42857,-0.7143 0,-0.3928 -0.12453,-0.7142 -0.27675,-0.7142 -0.1522,0 -0.20274,-0.1929 -0.11228,-0.4286 0.10494,-0.2735 -0.005,-0.4286 -0.30365,-0.4286 -0.25746,0 -0.54026,0.188 -0.62845,0.4178 -0.25435,0.6629 -1.53601,-0.3072 -1.53601,-1.1625 0,-0.3735 -0.25714,-0.8396 -0.57143,-1.0359 -0.31428,-0.1962 -0.57143,-0.4882 -0.57143,-0.6489 0,-0.1606 -0.32143,-0.5334 -0.71428,-0.8284 -0.39286,-0.295 -0.71429,-0.7692 -0.71429,-1.0536 0,-0.2845 -0.2107,-0.6351 -0.46823,-0.7793 -0.40297,-0.2255 -0.34324,-0.3544 0.42857,-0.925 1.2757,-0.9432 1.12926,-1.2699 -0.56918,-1.2699 -1.87138,0 -2.41852,-0.6207 -1.45303,-1.6484 0.83076,-0.8843 0.80169,-1.5728 -0.0834,-1.9761 -0.54914,-0.2502 -0.8742,-0.2423 -1.39025,0.034 -0.58525,0.3132 -0.81898,0.2691 -1.78327,-0.3365 -0.66281,-0.4163 -1.7835,-0.7751 -2.78265,-0.8909 -2.08833,-0.2422 -2.58326,-0.5046 -3.04219,-1.6125 -0.26916,-0.6498 -0.28449,-1.0574 -0.0584,-1.5536 0.39568,-0.8684 0.14389,-1.8077 -0.54305,-2.0257 -0.32479,-0.1031 -0.54058,-0.435 -0.54058,-0.8316 0,-0.9515 -0.67264,-1.4395 -1.16559,-0.8455 -0.32392,0.3903 -0.31702,0.5143 0.0439,0.7893 0.2355,0.1794 0.38635,0.5833 0.33523,0.8976 -0.2755,1.6936 -0.3719,1.8571 -1.09493,1.8571 -0.4002,0 -0.97632,0.1331 -1.28027,0.2958 -0.35977,0.1926 -0.55265,0.1964 -0.55265,0.011 0,-0.1566 -0.50265,-0.7824 -1.11701,-1.3906 -0.68111,-0.6743 -1.25738,-1.5985 -1.47673,-2.3682 -0.19785,-0.6942 -0.46663,-1.3844 -0.59728,-1.5337 -0.13065,-0.1493 -0.23755,-0.5115 -0.23755,-0.805 0,-0.4056 -0.13863,-0.4895 -0.57835,-0.35 -0.4867,0.1545 -0.67301,-0.044 -1.1757,-1.2538 -0.80686,-1.9415 -3.96024,-4.4271 -3.96024,-3.1216 0,0.1876 -0.65685,-0.5913 -1.45967,-1.7308 -0.80283,-1.1395 -1.41354,-2.1086 -1.35715,-2.1536 0.0564,-0.045 3.05207,-0.8765 6.65705,-1.8479 l 6.55452,-1.7662 15.69666,4.5073 15.69666,4.5073 -0.19227,3.8572 c -0.96629,19.3854 -6.43609,39.6432 -14.31044,52.9999 -3.7488,6.3588 -10.46594,13.9107 -15.29997,17.2013 l -2.15747,1.4686 -2.98539,-2.2293 0,0 z"
       id="path4135"
       inkscape:connector-curvature="0" />
  </g>
</svg>
